<mxfile host="app.diagrams.net" agent="Mozilla/5.0 (Windows NT 10.0; Win64; x64) AppleWebKit/537.36 (KHTML, like Gecko) Chrome/128.0.0.0 Safari/537.36" version="24.7.10">
  <diagram name="Page-1" id="uMos7vQhocS0FYBHZhFH">
    <mxGraphModel dx="1834" dy="830" grid="0" gridSize="10" guides="1" tooltips="1" connect="1" arrows="1" fold="1" page="0" pageScale="1" pageWidth="850" pageHeight="1100" math="0" shadow="0">
      <root>
        <mxCell id="0" />
        <mxCell id="1" parent="0" />
        <mxCell id="FoUEJh-1UnwRNpCLPP7X-1" value="" style="rounded=0;whiteSpace=wrap;html=1;" vertex="1" parent="1">
          <mxGeometry x="-18" y="177" width="508" height="360" as="geometry" />
        </mxCell>
        <mxCell id="FoUEJh-1UnwRNpCLPP7X-3" value="" style="rounded=1;whiteSpace=wrap;html=1;" vertex="1" parent="1">
          <mxGeometry x="95" y="299" width="125" height="136" as="geometry" />
        </mxCell>
        <mxCell id="FoUEJh-1UnwRNpCLPP7X-2" value="Service A&lt;div&gt;RetrieveBook&lt;/div&gt;&lt;div&gt;&amp;nbsp;Service&lt;/div&gt;" style="shape=image;html=1;verticalAlign=top;verticalLabelPosition=bottom;labelBackgroundColor=#ffffff;imageAspect=0;aspect=fixed;image=https://cdn2.iconfinder.com/data/icons/boxicons-logos/24/bxl-spring-boot-128.png;fontStyle=1;fontColor=#4C0099;" vertex="1" parent="1">
          <mxGeometry x="136" y="320" width="47" height="47" as="geometry" />
        </mxCell>
        <mxCell id="FoUEJh-1UnwRNpCLPP7X-4" value="Docker" style="shape=image;html=1;verticalAlign=top;verticalLabelPosition=bottom;labelBackgroundColor=#ffffff;imageAspect=0;aspect=fixed;image=https://cdn1.iconfinder.com/data/icons/ionicons-fill-vol-2/512/logo-docker-128.png;fontColor=#67AB9F;fontStyle=1" vertex="1" parent="1">
          <mxGeometry x="86" y="276" width="42" height="42" as="geometry" />
        </mxCell>
        <mxCell id="FoUEJh-1UnwRNpCLPP7X-5" value="" style="rounded=1;whiteSpace=wrap;html=1;" vertex="1" parent="1">
          <mxGeometry x="267" y="296" width="133" height="144" as="geometry" />
        </mxCell>
        <mxCell id="FoUEJh-1UnwRNpCLPP7X-6" value="Service B&lt;div&gt;&amp;nbsp;FilterService&lt;/div&gt;" style="shape=image;html=1;verticalAlign=top;verticalLabelPosition=bottom;labelBackgroundColor=#ffffff;imageAspect=0;aspect=fixed;image=https://cdn2.iconfinder.com/data/icons/boxicons-logos/24/bxl-spring-boot-128.png;fontStyle=1;fontColor=#4C0099;" vertex="1" parent="1">
          <mxGeometry x="308" y="317" width="47" height="47" as="geometry" />
        </mxCell>
        <mxCell id="FoUEJh-1UnwRNpCLPP7X-7" value="Docker" style="shape=image;html=1;verticalAlign=top;verticalLabelPosition=bottom;labelBackgroundColor=#ffffff;imageAspect=0;aspect=fixed;image=https://cdn1.iconfinder.com/data/icons/ionicons-fill-vol-2/512/logo-docker-128.png;fontColor=#67AB9F;fontStyle=1" vertex="1" parent="1">
          <mxGeometry x="258" y="273" width="42" height="42" as="geometry" />
        </mxCell>
        <mxCell id="FoUEJh-1UnwRNpCLPP7X-9" value="" style="aspect=fixed;sketch=0;html=1;dashed=0;whitespace=wrap;verticalLabelPosition=bottom;verticalAlign=top;fillColor=#2875E2;strokeColor=#ffffff;points=[[0.005,0.63,0],[0.1,0.2,0],[0.9,0.2,0],[0.5,0,0],[0.995,0.63,0],[0.72,0.99,0],[0.5,1,0],[0.28,0.99,0]];shape=mxgraph.kubernetes.icon2;prIcon=api" vertex="1" parent="1">
          <mxGeometry x="-42" y="149" width="50" height="48" as="geometry" />
        </mxCell>
      </root>
    </mxGraphModel>
  </diagram>
</mxfile>
